External Loads File
version=1
nRows=47
nColumns=13
Range=5.000000e-03-10 seconds
endheader
time 	forceRightX 	forceRightY 	forceRightZ 	pointRightX 	pointRightY 	pointRightZ 	forceLeftX 	forceLeftY 	forceLeftZ 	pointLeftX 	pointLeftY 	pointLeftZ 		
0.005000 45.763773 100.856716 -0.000000 0.250006 0.490770 -0.110874 -6.778000 351.781918 -0.000000 0.315291 0.146747 -0.355788
0.010000 45.467032 100.094069 -0.000000 0.250014 0.490804 -0.110868 -6.499662 350.648397 -0.000000 0.315280 0.146746 -0.355794
0.015000 45.186833 99.382096 -0.000000 0.250024 0.490825 -0.110873 -6.295395 349.780442 -0.000000 0.315261 0.146739 -0.355789
0.020000 44.995921 98.745154 -0.000000 0.250057 0.490795 -0.110840 -5.903160 349.245243 -0.000000 0.314544 0.148640 -0.357636
0.025000 45.067130 98.136798 -0.000000 0.250068 0.492225 -0.110898 -4.655605 349.043315 -0.000000 0.313464 0.149148 -0.358226
0.030000 44.483829 97.982774 -0.000000 0.250126 0.491278 -0.110825 -5.794253 349.121959 -0.000000 0.314706 0.147706 -0.356803
0.035000 44.036838 97.898043 -0.000000 0.250169 0.489841 -0.110835 -6.552846 349.506081 -0.000000 0.315095 0.147547 -0.355797
0.040000 43.866888 97.779903 -0.000000 0.250229 0.489798 -0.110839 -6.477351 350.137294 -0.000000 0.315029 0.146566 -0.355790
0.045000 43.726867 97.699552 -0.000000 0.250293 0.490627 -0.110853 -6.456692 350.899756 -0.000000 0.314954 0.146548 -0.355798
0.050000 43.581966 97.638098 -0.000000 0.250369 0.490641 -0.110857 -6.574801 351.717594 -0.000000 0.314865 0.146510 -0.355790
0.055000 43.472801 97.552860 -0.000000 0.250463 0.490870 -0.110857 -6.621260 352.539089 -0.000000 0.314773 0.146491 -0.355777
0.060000 43.364780 97.457101 -0.000000 0.250554 0.490917 -0.110865 -6.670622 353.302005 -0.000000 0.314673 0.146494 -0.355760
0.065000 43.272694 97.366814 -0.000000 0.250659 0.490962 -0.110865 -6.661247 353.989088 -0.000000 0.314563 0.146463 -0.355759
0.070000 43.190753 97.319151 -0.000000 0.250770 0.491004 -0.110872 -6.638768 354.649694 -0.000000 0.314455 0.146428 -0.355736
0.075000 43.114019 97.345588 -0.000000 0.250853 0.491052 -0.110816 -6.646081 355.324865 -0.000000 0.314327 0.146410 -0.355733
0.080000 43.055455 97.447844 -0.000000 0.250996 0.491101 -0.110829 -6.629560 355.985094 -0.000000 0.314213 0.146361 -0.355735
0.085000 42.994243 97.608420 -0.000000 0.251147 0.491145 -0.110769 -6.623195 356.570123 -0.000000 0.314080 0.146342 -0.355733
0.090000 42.907358 97.778927 -0.000000 0.251248 0.491140 -0.110868 -6.666640 357.066767 -0.000000 0.313921 0.146289 -0.355740
0.095000 42.814642 97.885098 -0.000000 0.251415 0.491201 -0.110878 -6.663181 357.510003 -0.000000 0.313770 0.146263 -0.355761
0.100000 42.696915 97.893401 -0.000000 0.251574 0.491240 -0.110897 -6.673498 357.930182 -0.000000 0.313618 0.146207 -0.355737
0.105000 42.571594 97.791205 -0.000000 0.251748 0.491285 -0.110926 -6.643073 358.358378 -0.000000 0.313441 0.146184 -0.355752
0.110000 42.437731 97.603475 -0.000000 0.251921 0.491345 -0.110937 -6.606066 358.827064 -0.000000 0.313270 0.146169 -0.355781
0.115000 42.306025 97.364306 -0.000000 0.252089 0.491389 -0.110937 -6.558664 359.341141 -0.000000 0.313109 0.146120 -0.355755
0.120000 42.182386 97.114113 -0.000000 0.252249 0.491444 -0.111050 -6.503322 359.887383 -0.000000 0.312962 0.146079 -0.355745
0.125000 42.078862 96.883985 -0.000000 0.252404 0.491478 -0.111054 -6.413224 360.474345 -0.000000 0.312798 0.146033 -0.355744
0.130000 41.993926 96.684408 -0.000000 0.252553 0.491526 -0.111075 -6.315353 361.106175 -0.000000 0.312639 0.145985 -0.355723
0.135000 41.930558 96.492689 -0.000000 0.252710 0.491562 -0.111100 -6.214717 361.742914 -0.000000 0.312490 0.145949 -0.355711
0.140000 41.892760 96.281199 -0.000000 0.252865 0.491618 -0.111113 -6.094847 362.328914 -0.000000 0.312327 0.145905 -0.355729
0.145000 41.868509 96.049776 -0.000000 0.253020 0.491667 -0.111123 -5.984486 362.825903 -0.000000 0.312168 0.145868 -0.355723
0.150000 41.852900 95.814841 -0.000000 0.253175 0.491707 -0.111133 -5.878246 363.191888 -0.000000 0.312001 0.145816 -0.355707
0.155000 41.839840 95.601937 -0.000000 0.253344 0.491767 -0.111130 -5.775221 363.377740 -0.000000 0.311841 0.145787 -0.355714
0.160000 41.824411 95.427681 -0.000000 0.253497 0.491815 -0.111129 -5.685352 363.386374 -0.000000 0.311677 0.145728 -0.355715
0.165000 41.798414 95.290730 -0.000000 0.253634 0.491851 -0.111135 -5.649498 363.281725 -0.000000 0.311541 0.145682 -0.355700
0.170000 41.776430 95.174964 -0.000000 0.253784 0.491894 -0.111145 -5.610458 363.113238 -0.000000 0.311410 0.145664 -0.355705
0.175000 41.748383 95.086033 -0.000000 0.253915 0.491951 -0.111131 -5.581624 362.892942 -0.000000 0.311286 0.145620 -0.355689
0.180000 41.712539 95.033703 -0.000000 0.254039 0.491968 -0.111143 -5.546612 362.650420 -0.000000 0.311150 0.145596 -0.355683
0.185000 41.663637 95.027198 -0.000000 0.254166 0.491994 -0.111148 -5.508628 362.420643 -0.000000 0.311025 0.145568 -0.355685
0.190000 41.591551 95.065171 -0.000000 0.254270 0.492033 -0.111146 -5.481994 362.192593 -0.000000 0.310905 0.145527 -0.355682
0.195000 41.497253 95.123456 -0.000000 0.254389 0.492060 -0.111157 -5.442332 361.945003 -0.000000 0.310794 0.145525 -0.355673
0.200000 41.377618 95.169600 -0.000000 0.254482 0.492086 -0.111163 -5.396819 361.705942 -0.000000 0.310671 0.145491 -0.355687
0.205000 41.230194 95.176422 -0.000000 0.254581 0.492109 -0.111172 -5.362626 361.519531 -0.000000 0.310575 0.145463 -0.355681
0.210000 41.063097 95.131990 -0.000000 0.254664 0.492151 -0.111174 -5.335957 361.406499 -0.000000 0.310488 0.145421 -0.355659
0.215000 40.894587 95.043059 -0.000000 0.254733 0.492157 -0.111185 -5.305118 361.394809 -0.000000 0.310386 0.145419 -0.355673
0.220000 40.745880 94.926071 -0.000000 0.254815 0.492165 -0.111185 -5.268504 361.518083 -0.000000 0.310310 0.145392 -0.355671
0.225000 40.626549 94.801511 -0.000000 0.254870 0.492187 -0.111190 -5.256644 361.763384 -0.000000 0.310240 0.145374 -0.355679
0.230000 40.550162 94.684846 -0.000000 0.254926 0.492187 -0.111191 -5.238013 362.069136 -0.000000 0.310174 0.145361 -0.355677
0.235000 40.510289 94.588766 -0.000000 0.254975 0.492206 -0.111200 -5.217051 362.376046 -0.000000 0.310118 0.145376 -0.355672
